<svg width="1200" height="900" viewBox="0 0 1200 900" fill="none" xmlns="http://www.w3.org/2000/svg">
  <rect width="1200" height="900" rx="56" fill="url(#bg)"/>
  <circle cx="911" cy="173" r="118" fill="#F8FBF8" fill-opacity="0.6"/>
  <rect x="153" y="128" width="470" height="620" rx="44" fill="#FDFBF8" fill-opacity="0.88"/>
  <rect x="220" y="210" width="336" height="24" rx="12" fill="#C6E2D7"/>
  <rect x="220" y="262" width="264" height="16" rx="8" fill="#DDEEE7"/>
  <rect x="220" y="296" width="310" height="16" rx="8" fill="#DDEEE7"/>
  <rect x="220" y="330" width="280" height="16" rx="8" fill="#DDEEE7"/>
  <rect x="220" y="406" width="334" height="208" rx="28" fill="#0F3D2E"/>
  <path d="M268 455H507" stroke="#D7F5EA" stroke-width="10" stroke-linecap="round"/>
  <path d="M268 499H507" stroke="#D7F5EA" stroke-width="10" stroke-linecap="round"/>
  <path d="M268 543H452" stroke="#D7F5EA" stroke-width="10" stroke-linecap="round"/>
  <path d="M737 279C812 219 911 221 978 286C924 349 815 353 737 279Z" fill="#D8F3E6"/>
  <path d="M840 210C892 209 934 248 942 305C886 309 839 281 840 210Z" fill="#79C5B5"/>
  <path d="M691 586C792 539 884 539 991 589" stroke="#177485" stroke-width="14" stroke-linecap="round"/>
  <path d="M0 744C140 710 270 707 404 730C593 761 722 835 919 817C1022 807 1112 757 1200 710V900H0V744Z" fill="#D9EDE4"/>
  <path d="M0 810C166 758 318 758 464 786C645 820 770 879 947 849C1040 833 1120 789 1200 744V900H0V810Z" fill="#0F3D2E"/>
  <defs>
    <linearGradient id="bg" x1="102" y1="83" x2="1105" y2="849" gradientUnits="userSpaceOnUse">
      <stop stop-color="#F3F8F4"/>
      <stop offset="0.46" stop-color="#DBEADF"/>
      <stop offset="1" stop-color="#BDD3C7"/>
    </linearGradient>
  </defs>
</svg>
